<svg width="40" height="40" viewBox="0 0 40 40" fill="none" xmlns="http://www.w3.org/2000/svg">
<rect width="40" height="40" rx="8" fill="#EFF1F1"/>
<path fill-rule="evenodd" clip-rule="evenodd" d="M6 8.74751C6 8.05795 6 7.71317 6.13371 7.43565C6.25154 7.1911 6.44105 6.98381 6.67965 6.83851C6.95041 6.67363 7.31038 6.62469 8.03032 6.5268L18.2979 5.1308C19.2299 5.00408 19.6959 4.94073 20.058 5.0745C20.3759 5.19193 20.6412 5.40996 20.8089 5.69163C21 6.0125 21 6.45884 21 7.35151V26.6485C21 27.5412 21 27.9875 20.8089 28.3084C20.6412 28.59 20.3759 28.8081 20.058 28.9255C19.6959 29.0593 19.2299 28.9959 18.2979 28.8692H18.2979H18.2979L8.03032 27.4732L8.03028 27.4732C7.31037 27.3753 6.95041 27.3264 6.67965 27.1615C6.44105 27.0162 6.25154 26.8089 6.13371 26.5643C6 26.2868 6 25.942 6 25.2525V8.74751ZM17 15.2539C17 15.0439 17 14.9389 17.0353 14.856C17.0663 14.7829 17.1161 14.7218 17.1783 14.6806C17.249 14.6337 17.3424 14.6242 17.5291 14.6052L18.3655 14.5201C18.5856 14.4977 18.6956 14.4865 18.7806 14.5276C18.8552 14.5637 18.9169 14.6267 18.9558 14.7067C19 14.7977 19 14.9214 19 15.1688V18.8312C19 19.0786 19 19.2023 18.9558 19.2933C18.9169 19.3733 18.8552 19.4363 18.7806 19.4724C18.6956 19.5135 18.5856 19.5023 18.3655 19.4799L17.5291 19.3948C17.3424 19.3758 17.249 19.3663 17.1783 19.3194C17.1161 19.2782 17.0663 19.2171 17.0353 19.144C17 19.0611 17 18.9561 17 18.7461V15.2539ZM23.8222 7.5H22.5V27H23.8222C24.5845 27 24.9657 27 25.2568 26.8512C25.5129 26.7204 25.7212 26.5115 25.8516 26.2547C26 25.9627 26 25.5805 26 24.816V9.684C26 8.91953 26 8.53729 25.8516 8.2453C25.7212 7.98846 25.5129 7.77964 25.2568 7.64878C24.9657 7.5 24.5845 7.5 23.8222 7.5Z" fill="url(#paint0_linear_7480_106178)"/>
<path d="M18 24C18 21.7909 19.7909 20 22 20H32C34.2091 20 36 21.7909 36 24V29C36 31.2091 34.2091 33 32 33H24.1079C23.383 33 22.6716 33.197 22.05 33.57L19.5145 35.0913C18.848 35.4912 18 35.0111 18 34.2338V24Z" fill="url(#paint1_linear_7480_106178)"/>
<path d="M22.0771 29.1143C23.1904 29.1143 23.8555 28.5635 23.8555 27.6992V27.6963C23.8555 27.0137 23.4453 26.6533 22.5459 26.4775L22.1094 26.3926C21.6523 26.3018 21.459 26.1699 21.459 25.9297V25.9268C21.459 25.6748 21.6875 25.502 22.0742 25.502C22.4639 25.502 22.7275 25.6777 22.7715 25.9414L22.7773 25.9766H23.7734L23.7705 25.9414C23.7061 25.1943 23.1289 24.6582 22.0684 24.6582C21.0957 24.6582 20.3926 25.1914 20.3896 26.0205V26.0234C20.3896 26.6826 20.7764 27.1045 21.6699 27.2773L22.1064 27.3623C22.6016 27.459 22.7891 27.5703 22.7891 27.8076V27.8105C22.7891 28.0801 22.5137 28.2705 22.0947 28.2705C21.6611 28.2705 21.3711 28.083 21.3418 27.8223L21.3389 27.7959H20.3135L20.3164 27.8486C20.3604 28.6338 21.0225 29.1143 22.0771 29.1143ZM24.5499 29H25.4962V26.3076H25.5548L26.5157 29H27.128L28.089 26.3076H28.1505V29H29.0939V24.7725H27.8722L26.8527 27.6406H26.797L25.7745 24.7725H24.5499V29ZM31.552 29.1143C32.6653 29.1143 33.3303 28.5635 33.3303 27.6992V27.6963C33.3303 27.0137 32.9202 26.6533 32.0207 26.4775L31.5842 26.3926C31.1272 26.3018 30.9338 26.1699 30.9338 25.9297V25.9268C30.9338 25.6748 31.1623 25.502 31.5491 25.502C31.9387 25.502 32.2024 25.6777 32.2463 25.9414L32.2522 25.9766H33.2483L33.2454 25.9414C33.1809 25.1943 32.6038 24.6582 31.5432 24.6582C30.5705 24.6582 29.8674 25.1914 29.8645 26.0205V26.0234C29.8645 26.6826 30.2512 27.1045 31.1448 27.2773L31.5813 27.3623C32.0764 27.459 32.2639 27.5703 32.2639 27.8076V27.8105C32.2639 28.0801 31.9885 28.2705 31.5696 28.2705C31.136 28.2705 30.8459 28.083 30.8166 27.8223L30.8137 27.7959H29.7883L29.7913 27.8486C29.8352 28.6338 30.4973 29.1143 31.552 29.1143Z" fill="#FFEAFE"/>
<defs>
<linearGradient id="paint0_linear_7480_106178" x1="-0.190476" y1="21.5976" x2="24.4448" y2="11.5268" gradientUnits="userSpaceOnUse">
<stop stop-color="#4B2EFB"/>
<stop offset="1" stop-color="#E65FFC"/>
</linearGradient>
<linearGradient id="paint1_linear_7480_106178" x1="40" y1="18.5" x2="17.5" y2="35" gradientUnits="userSpaceOnUse">
<stop stop-color="#F085F2"/>
<stop offset="1" stop-color="#FAC89E"/>
</linearGradient>
</defs>
</svg>
