<svg width="96" height="96" viewBox="0 0 96 96" fill="none" xmlns="http://www.w3.org/2000/svg">
<path d="M8 74.9968C8 66.2112 16.3812 33.4345 33.7097 11.4707C21.4778 34.5609 14.3624 50.195 19.5524 62.3817C23.6297 71.9556 44.5826 68.9145 55.9085 65.0849C35.7484 74.2083 15.0598 75.4473 8 74.9968Z" fill="#C1272D"/>
<path d="M45.5349 10.5C53.1855 14.8928 77.5377 38.4994 88 64.4057C74.0085 42.3258 63.9517 28.3805 50.7442 26.7571C40.3684 25.4817 32.5402 45.0481 30.2122 56.7173C32.3473 34.7927 41.6127 16.355 45.5349 10.5Z" fill="#C1272D"/>
<path d="M83.106 74.9178C75.4553 79.3105 42.722 88.4806 14.9312 84.5382C41.1545 83.5279 58.3268 81.839 66.3442 71.2758C72.6428 62.9772 59.5181 46.452 50.5202 38.6123C68.5452 51.4135 79.9684 68.6122 83.106 74.9178Z" fill="#C1272D"/>
</svg>
