<svg width="34" height="34" viewBox="0 0 34 34" fill="none" xmlns="http://www.w3.org/2000/svg">
<path d="M0.333252 7.00001C0.333252 3.31811 3.31804 0.333344 6.99997 0.333344H27.0001C30.6821 0.333344 33.6668 3.31811 33.6668 7.00001V27C33.6668 30.6819 30.6821 33.6667 27.0001 33.6667H6.99997C3.31804 33.6667 0.333252 30.6819 0.333252 27V7.00001Z" fill="#5865F2"/>
<path d="M25.0861 10.141C23.5989 9.45859 22.0041 8.95584 20.3366 8.66789C20.3062 8.66234 20.2759 8.67623 20.2603 8.704C20.0552 9.06879 19.828 9.5447 19.6689 9.91875C17.8754 9.65025 16.0912 9.65025 14.3345 9.91875C14.1753 9.53638 13.9399 9.06879 13.7339 8.704C13.7182 8.67715 13.6879 8.66326 13.6575 8.66789C11.991 8.95492 10.3962 9.45767 8.90808 10.141C8.8952 10.1465 8.88415 10.1558 8.87682 10.1678C5.85183 14.6871 5.02316 19.0952 5.42968 23.4487C5.43152 23.47 5.44347 23.4904 5.46003 23.5034C7.45583 24.969 9.38911 25.8588 11.2865 26.4486C11.3169 26.4578 11.349 26.4467 11.3684 26.4217C11.8172 25.8088 12.2173 25.1626 12.5603 24.4829C12.5805 24.4431 12.5612 24.3959 12.5198 24.3802C11.8852 24.1394 11.281 23.8459 10.6997 23.5126C10.6537 23.4858 10.65 23.42 10.6923 23.3885C10.8147 23.2969 10.937 23.2015 11.0538 23.1052C11.0749 23.0876 11.1044 23.0839 11.1292 23.095C14.9479 24.8385 19.0821 24.8385 22.8557 23.095C22.8805 23.083 22.91 23.0867 22.932 23.1043C23.0489 23.2006 23.1712 23.2969 23.2944 23.3885C23.3367 23.42 23.334 23.4858 23.288 23.5126C22.7067 23.8524 22.1025 24.1394 21.4669 24.3792C21.4256 24.395 21.4072 24.4431 21.4274 24.4829C21.7778 25.1616 22.1779 25.8079 22.6184 26.4208C22.6368 26.4467 22.6699 26.4578 22.7003 26.4486C24.6069 25.8588 26.5401 24.969 28.5359 23.5034C28.5534 23.4904 28.5645 23.471 28.5663 23.4497C29.0528 18.4165 27.7514 14.0445 25.1164 10.1687C25.11 10.1558 25.0989 10.1465 25.0861 10.141ZM13.1306 20.7979C11.9809 20.7979 11.0336 19.7424 11.0336 18.4462C11.0336 17.1499 11.9625 16.0944 13.1306 16.0944C14.3078 16.0944 15.2459 17.1592 15.2275 18.4462C15.2275 19.7424 14.2986 20.7979 13.1306 20.7979ZM20.8838 20.7979C19.7342 20.7979 18.7869 19.7424 18.7869 18.4462C18.7869 17.1499 19.7158 16.0944 20.8838 16.0944C22.0611 16.0944 22.9992 17.1592 22.9808 18.4462C22.9808 19.7424 22.0611 20.7979 20.8838 20.7979Z" fill="white"/>
</svg>
