<svg width="24" height="24" viewBox="0 0 24 24" fill="none" xmlns="http://www.w3.org/2000/svg">
<g clip-path="url(#clip0_1569_8826)">
<path d="M19.2859 16.4331C18.9649 16.7442 18.3228 17.2109 17.1992 17.2109C16.7176 17.2109 16.1558 17.2109 15.915 17.2109C15.594 17.2109 13.1862 17.2109 10.2969 17.2109C12.3836 15.2664 14.1493 13.6331 14.3099 13.4775C14.4704 13.322 14.8717 12.9331 15.273 12.622C16.0756 11.922 16.7176 11.8442 17.2794 11.8442C18.082 11.8442 18.7241 12.1553 19.2859 12.622C20.4096 13.6331 20.4096 15.422 19.2859 16.4331ZM20.6503 11.3775C19.8477 10.522 18.6438 9.97754 17.3597 9.97754C16.2361 9.97754 15.273 10.3664 14.3901 10.9886C14.0691 11.2998 13.5875 11.6109 13.1862 12.0775C12.8652 12.3886 5.96289 18.922 5.96289 18.922C6.36419 18.9998 6.84574 18.9998 7.24704 18.9998C7.64833 18.9998 15.6743 18.9998 15.9953 18.9998C16.6374 18.9998 17.1189 18.9998 17.6005 18.922C18.6438 18.8442 19.6872 18.4553 20.5701 17.6775C22.416 15.9664 22.416 13.0886 20.6503 11.3775Z" fill="#00A3FF"/>
<path d="M9.41411 10.9109C8.53126 10.2887 7.64841 9.97754 6.60504 9.97754C5.32089 9.97754 4.117 10.522 3.31441 11.3775C1.54871 13.1664 1.54871 15.9664 3.39467 17.7553C4.19726 18.4553 4.99986 18.8442 5.96297 18.922L7.80893 17.2109C7.48789 17.2109 7.0866 17.2109 6.76556 17.2109C5.72219 17.1331 5.08012 16.822 4.67882 16.4331C3.55519 15.3442 3.55519 13.6331 4.59856 12.5442C5.16037 11.9998 5.80245 11.7664 6.60504 11.7664C7.0866 11.7664 7.80893 11.8442 8.53126 12.5442C8.8523 12.8553 9.73515 13.4775 10.0562 13.7886H10.1364L11.3403 12.622V12.5442C10.7785 11.9998 9.89567 11.2998 9.41411 10.9109Z" fill="#00C8DC"/>
<path d="M17.8414 8.96667C16.9586 6.63333 14.6311 5 11.9825 5C8.8524 5 6.36437 7.25556 5.88281 10.0556C6.12359 10.0556 6.36437 9.97778 6.6854 9.97778C7.00644 9.97778 7.40774 10.0556 7.72877 10.0556C8.13007 8.11111 9.89577 6.71111 11.9825 6.71111C13.7482 6.71111 15.2731 7.72222 15.9955 9.2C15.9955 9.2 16.0757 9.27778 16.0757 9.2C16.6375 9.12222 17.2796 8.96667 17.8414 8.96667C17.8414 9.04444 17.8414 9.04444 17.8414 8.96667Z" fill="#006EFF"/>
</g>
<defs>
<clipPath id="clip0_1569_8826">
<rect width="20" height="14" fill="white" transform="translate(2 5)"/>
</clipPath>
</defs>
</svg>
