<svg width="28px" height="20px" viewBox="0 0 28 20" version="1.1" xmlns="http://www.w3.org/2000/svg">
  <title>logo</title>
  <g id="logo" fill-rule="nonzero">
    <path d="M24.2003969,16.3333333 C23.7509452,16.7777778 22.8520419,17.4444444 21.2789611,17.4444444 C20.6047836,17.4444444 19.8182432,17.4444444 19.4811545,17.4444444 C19.0317028,17.4444444 15.6608154,17.4444444 11.6157504,17.4444444 C14.5371862,14.6666667 17.0091703,12.3333333 17.2338962,12.1111111 C17.458622,11.8888889 18.0204366,11.3333333 18.5822511,10.8888889 C19.7058803,9.88888889 20.6047836,9.77777778 21.391324,9.77777778 C22.5149532,9.77777778 23.4138565,10.2222222 24.2003969,10.8888889 C25.7734777,12.3333333 25.7734777,14.8888889 24.2003969,16.3333333 L24.2003969,16.3333333 Z M26.1105664,9.11111111 C24.9869373,7.88888889 23.3014936,7.11111111 21.5036869,7.11111111 C19.9306061,7.11111111 18.5822511,7.66666667 17.3462591,8.55555556 C16.8968074,9 16.2226299,9.44444444 15.6608154,10.1111111 C15.2113637,10.5555556 5.54815303,19.8888889 5.54815303,19.8888889 C6.1099676,20 6.78414509,20 7.34595966,20 C7.90777424,20 19.1440657,20 19.5935174,20 C20.4924207,20 21.1665982,20 21.8407757,19.8888889 C23.3014936,19.7777778 24.7622115,19.2222222 25.9982035,18.1111111 C28.5825506,15.6666667 28.5825506,11.5555556 26.1105664,9.11111111 Z" fill="#00A3FF"></path>
    <path d="M10.3797584,8.44444444 C9.1437663,7.55555556 7.90777424,7.11111111 6.44705634,7.11111111 C4.64924971,7.11111111 2.96380599,7.88888889 1.84017684,9.11111111 C-0.631807287,11.6666667 -0.631807287,15.6666667 1.95253975,18.2222222 C3.0761689,19.2222222 4.19979805,19.7777778 5.54815303,19.8888889 L8.13250007,17.4444444 C7.68304841,17.4444444 7.12123383,17.4444444 6.67178217,17.4444444 C5.21106428,17.3333333 4.31216096,16.8888889 3.75034639,16.3333333 C2.17726558,14.7777778 2.17726558,12.3333333 3.63798347,10.7777778 C4.42452388,10 5.3234272,9.66666667 6.44705634,9.66666667 C7.12123383,9.66666667 8.13250007,9.77777778 9.1437663,10.7777778 C9.59321796,11.2222222 10.82921,12.1111111 11.2786617,12.5555556 L11.3910246,12.5555556 L13.0764683,10.8888889 L13.0764683,10.7777778 C12.2899279,10 11.0539358,9 10.3797584,8.44444444" fill="#00C8DC"></path>
    <path d="M22.1778644,5.66666667 C20.9418723,2.33333333 17.6833478,0 13.9753716,0 C9.59321796,0 6.1099676,3.22222222 5.43579011,7.22222222 C5.77287885,7.22222222 6.1099676,7.11111111 6.55941926,7.11111111 C7.00887092,7.11111111 7.57068549,7.22222222 8.02013715,7.22222222 L8.02013715,7.22222222 C8.58195172,4.44444444 11.0539358,2.44444444 13.9753716,2.44444444 C16.4473558,2.44444444 18.5822511,3.88888889 19.5935174,6 C19.5935174,6 19.7058803,6.11111111 19.7058803,6 C20.4924207,5.88888889 21.391324,5.66666667 22.1778644,5.66666667 C22.1778644,5.77777778 22.1778644,5.77777778 22.1778644,5.66666667" fill="#006EFF"></path>
  </g>
</svg>
