<svg width="96" height="96" viewBox="0 0 96 96" fill="none" xmlns="http://www.w3.org/2000/svg">
<path d="M45.1237 8.1161C62.8438 6.89017 74.5932 15.5421 81.3112 26.0834C84.6797 31.3688 87.9847 39.3963 87.9999 47.6443C88.0162 56.6059 85.1065 64.3665 81.3112 70.0607C77.4104 75.9133 72.3651 80.7473 66.0473 83.9213C55.4865 89.2271 40.7274 89.3722 31.0602 84.2635C20.2941 78.5743 12.0164 70.4538 8.93608 56.3713C7.70337 50.7356 7.56168 43.4538 9.27908 37.2061C9.6821 35.7406 10.4145 34.1981 10.9942 32.7571C13.7802 25.832 18.5221 19.8102 24.3716 15.6452C26.722 13.9717 29.5735 12.3072 32.0893 11.1961C35.2196 9.81375 40.49 8.43658 45.1237 8.1161Z" fill="white"/>
<path d="M78.7363 48.6408C78.7363 65.3503 65.1599 78.8951 48.4128 78.8951C31.6657 78.8951 18.0896 65.3503 18.0896 48.6408C18.0896 31.9316 31.6657 18.3857 48.4128 18.3857C65.1598 18.3857 78.7363 31.9316 78.7363 48.6408Z" fill="black"/>
<path d="M45.1237 8.1161C62.8438 6.89017 74.5932 15.5421 81.3112 26.0834C84.6797 31.3688 87.9847 39.3963 87.9999 47.6443C88.0162 56.6059 85.1065 64.3665 81.3112 70.0607C77.4104 75.9133 72.3651 80.7473 66.0473 83.9213C55.4865 89.2271 40.7274 89.3722 31.0602 84.2635C20.2941 78.5743 12.0164 70.4538 8.93608 56.3713C7.70337 50.7356 7.56168 43.4538 9.27908 37.2061C9.6821 35.7406 10.4145 34.1981 10.9942 32.7571C13.7802 25.832 18.5221 19.8102 24.3716 15.6452C26.722 13.9717 29.5735 12.3072 32.0893 11.1961C35.2196 9.81375 40.49 8.43658 45.1237 8.1161ZM39.1209 11.0251C32.5391 12.7277 27.7132 15.778 23.5141 19.0677C17.4589 23.8114 13.5988 30.4311 11.3372 38.4039C8.82113 47.274 10.4373 58.0078 13.9098 64.756C17.5108 71.7542 22.3458 77.1864 29.1737 81.0123C35.8165 84.7343 45.1595 87.1243 54.8996 85.2902C63.5534 83.6607 70.1259 79.8993 75.4802 74.3386C82.6439 66.8986 88.4015 53.1951 84.5701 38.7462C83.5459 34.8845 82.2069 30.8596 80.1108 27.4523C78.9784 25.6116 77.3166 23.8007 75.6517 21.9766C69.3684 15.092 59.213 9.15931 46.1527 9.99833C43.6672 10.158 41.4829 10.414 39.1209 11.0251Z" fill="black"/>
<path d="M50.3411 85.02L85.3813 50.0597L85.1923 49.8711L50.1521 84.8314L50.3411 85.02Z" fill="white"/>
<path d="M47.2779 82.2517L82.4709 47.1388L82.2818 46.9502L47.0889 82.0631L47.2779 82.2517Z" fill="white"/>
<path d="M44.2144 79.4836L79.5604 44.2179L79.3714 44.0293L44.0254 79.295L44.2144 79.4836Z" fill="white"/>
<path d="M41.1512 76.7142L76.6501 41.296L76.4611 41.1074L40.9622 76.5256L41.1512 76.7142Z" fill="white"/>
<path d="M38.088 73.946L73.7398 38.3751L73.5508 38.1865L37.8989 73.7574L38.088 73.946Z" fill="white"/>
<path d="M35.0245 71.1773L70.8291 35.4533L70.6401 35.2646L34.8354 70.9887L35.0245 71.1773Z" fill="white"/>
<path d="M31.9615 68.4093L67.9192 32.5333L67.7302 32.3447L31.7725 68.2207L31.9615 68.4093Z" fill="white"/>
<path d="M28.898 65.6402L65.0085 29.6115L64.8195 29.4229L28.709 65.4515L28.898 65.6402Z" fill="white"/>
<path d="M25.8345 62.8709L62.0973 26.6896L61.9082 26.501L25.6455 62.6823L25.8345 62.8709Z" fill="white"/>
<path d="M22.7716 60.1024L59.1879 23.7687L58.9988 23.5801L22.5825 59.9138L22.7716 60.1024Z" fill="white"/>
<path d="M19.7081 57.3342L56.2773 20.8478L56.0883 20.6592L19.519 57.1456L19.7081 57.3342Z" fill="white"/>
<path d="M16.6446 54.566L53.3669 17.9269L53.1779 17.7383L16.4556 54.3774L16.6446 54.566Z" fill="white"/>
<path d="M13.5816 51.7976L50.4568 15.006L50.2678 14.8174L13.3926 51.609L13.5816 51.7976Z" fill="white"/>
<path d="M10.5181 49.0283L47.5463 12.0841L47.3572 11.8955L10.3291 48.8397L10.5181 49.0283Z" fill="white"/>
<path d="M10.3171 49.382L46.0575 85.0432L46.2465 84.8546L10.5062 49.1934L10.3171 49.382Z" fill="white"/>
<path d="M13.2156 46.4484L49.0254 82.1791L49.2145 81.9905L13.4046 46.2598L13.2156 46.4484Z" fill="white"/>
<path d="M16.114 43.5158L51.9934 79.3157L52.1824 79.1271L16.3031 43.3271L16.114 43.5158Z" fill="white"/>
<path d="M19.0125 40.5822L54.9615 76.4516L55.1505 76.263L19.2015 40.3936L19.0125 40.5822Z" fill="white"/>
<path d="M21.9106 37.6495L57.9292 73.5882L58.1182 73.3996L22.0997 37.4609L21.9106 37.6495Z" fill="white"/>
<path d="M24.8091 34.716L60.8974 70.724L61.0864 70.5354L24.9981 34.5273L24.8091 34.716Z" fill="white"/>
<path d="M27.7073 31.7824L63.8651 67.8597L64.0541 67.6711L27.8963 31.5938L27.7073 31.7824Z" fill="white"/>
<path d="M30.6057 28.8507L66.8332 64.9973L67.0222 64.8087L30.7948 28.6621L30.6057 28.8507Z" fill="white"/>
<path d="M33.5039 25.9171L69.801 62.1331L69.99 61.9445L33.6929 25.7285L33.5039 25.9171Z" fill="white"/>
<path d="M36.4026 22.9835L72.7691 59.2686L72.9581 59.08L36.5916 22.7949L36.4026 22.9835Z" fill="white"/>
<path d="M39.3008 20.0499L75.7369 56.4046L75.9259 56.216L39.4898 19.8613L39.3008 20.0499Z" fill="white"/>
<path d="M42.199 17.1163L78.7047 53.5402L78.8938 53.3516L42.388 16.9277L42.199 17.1163Z" fill="white"/>
<path d="M45.0974 14.1847L81.6727 50.6779L81.8617 50.4893L45.2865 13.9961L45.0974 14.1847Z" fill="white"/>
<path d="M47.9958 11.2511L84.6406 47.8136L84.8297 47.6249L48.1849 11.0625L47.9958 11.2511Z" fill="white"/>
<path d="M73.5936 22.1482C70.4399 19.0016 66.5626 16.1662 61.9312 14.4479C57.1306 12.6667 51.7001 11.1654 45.2952 11.71C35.0927 12.5777 27.9292 17.1449 22.485 22.4904C18.6716 26.2345 15.8032 30.8225 13.9097 36.1798C11.1296 44.0461 11.2983 53.3308 14.4242 61.3342C17.0906 68.1609 21.4546 73.6672 27.6301 77.9326C33.4355 81.9426 41.7678 85.0526 51.1262 84.264C62.5246 83.3035 70.8646 77.4689 76.3374 70.7457C77.7378 69.0258 79.1301 67.0817 79.9389 64.7567C80.7315 63.0814 81.1194 61.9426 81.4826 61.3343C83.0027 57.9358 83.808 54.35 84.0551 50.3828C84.815 38.1806 80.1095 28.6496 73.5936 22.1482ZM70.2343 59.3246C70.2125 59.371 70.193 59.4142 70.1703 59.4621C69.6048 61.0765 68.6308 62.4265 67.6518 63.6209C63.8243 68.2894 57.9923 72.3408 50.0213 73.008C43.4766 73.5553 37.6498 71.3959 33.5901 68.6114C30.0622 66.1917 27.3805 63.1965 25.5 59.5969C25.3854 59.3803 24.2933 56.8699 24.2901 56.7595C22.8003 52.149 22.671 44.7356 24.2001 40.2868C25.2205 37.3176 26.9212 34.105 29.1737 31.5598C32.2837 28.0454 35.396 25.7935 40.3216 24.2017C42.5706 23.4748 44.584 22.735 47.3532 22.6617C54.1063 22.4823 60.983 25.5075 64.6752 28.8219C68.0683 31.8676 71.9354 37.8005 72.9076 43.3668C73.9081 49.096 72.8404 54.6896 70.2343 59.3246Z" fill="black"/>
<path d="M58.4966 64.8195C56.8338 64.8195 55.3745 63.7688 54.8652 62.2049L53.0131 56.5744H43.7477L42.0268 62.1536C41.5074 63.7479 40.037 64.8151 38.3656 64.8151C37.9643 64.8151 37.5657 64.7517 37.1808 64.6272C35.183 64.0288 34.0488 61.8832 34.6609 59.8472L42.4814 35.1309C42.9892 33.5586 44.4842 32.4619 46.1173 32.4619H50.2758C51.918 32.4619 53.4129 33.5399 53.9108 35.0835L62.1354 59.7907C62.7931 61.8107 61.7041 63.9791 59.7092 64.627C59.3147 64.7548 58.9069 64.8195 58.4966 64.8195Z" fill="white"/>
<path d="M58.4966 64.2863C57.007 64.2863 55.702 63.3467 55.2466 61.9482L53.394 56.3165L53.3035 56.0412H53.013H43.7476H43.4515L43.3644 56.3236L41.6435 61.9028C41.1799 63.3257 39.8639 64.2819 38.3655 64.2819C38.0067 64.2819 37.6498 64.2253 37.3045 64.1135C35.5107 63.5761 34.4964 61.6538 35.0449 59.8291L42.8638 35.1183C43.3176 33.7132 44.6587 32.7289 46.1172 32.7289H50.2757C51.7445 32.7289 53.0847 33.6954 53.529 35.073L61.7548 59.7837C62.3435 61.5918 61.3687 63.5342 59.585 64.1135C59.2308 64.2282 58.8648 64.2863 58.4966 64.2863ZM58.4966 65.0865C58.9491 65.0865 59.3987 65.0152 59.833 64.8745C62.0403 64.1576 63.2423 61.7624 62.5168 59.534L54.2913 34.8243C53.741 33.1183 52.0916 31.9287 50.2757 31.9287H46.1172C44.309 31.9287 42.6606 33.1385 42.0997 34.8751L34.2784 59.5937C33.6019 61.844 34.8527 64.2145 37.0655 64.8773C37.482 65.0122 37.9224 65.0821 38.3655 65.0821C40.2117 65.0821 41.8353 63.9023 42.4081 62.1442L44.1309 56.5589L43.7476 56.8414H53.013L52.632 56.566L54.4842 62.1966C55.0469 63.9247 56.6605 65.0865 58.4966 65.0865Z" fill="black"/>
<path d="M27.7835 24.584L27.7738 24.5708C26.7985 23.2373 27.0847 21.3717 28.521 20.3258C29.9573 19.2801 31.8023 19.5736 32.7776 20.9071L32.7874 20.9203C33.7626 22.2538 33.4764 24.1195 32.0401 25.1653C30.6038 26.211 28.7588 25.9176 27.7835 24.584ZM31.4805 21.8923L31.4707 21.8791C30.9807 21.209 30.0682 20.9785 29.3568 21.4966C28.652 22.0098 28.5972 22.924 29.0872 23.5942L29.097 23.6074C29.5871 24.2774 30.4994 24.5079 31.2043 23.9947C31.9158 23.4767 31.9706 22.5624 31.4805 21.8923Z" fill="white"/>
<path d="M37.1863 15.8432L38.652 15.374L42.7609 20.1398L41.1305 20.6617L40.4164 19.8121L38.3 20.4897L38.2225 21.5928L36.6235 22.1046L37.1863 15.8432ZM39.5977 18.7717L38.4858 17.4111L38.367 19.1657L39.5977 18.7717Z" fill="white"/>
<path d="M45.4004 17.2768L45.4133 14.0488L47.035 14.0552L47.0223 17.2504C47.0189 18.0799 47.4372 18.4757 48.0793 18.4784C48.7215 18.4809 49.1428 18.1048 49.1459 17.3L49.1588 14.0639L50.7805 14.0703L50.7678 17.2572C50.7605 19.1134 49.6954 19.9224 48.0571 19.9159C46.419 19.9092 45.3933 19.0755 45.4004 17.2768Z" fill="white"/>
<path d="M56.6374 16.7129L54.9841 16.2094L55.3926 14.874L60.2266 16.346L59.8181 17.6814L58.1648 17.1781L56.8913 21.3414L55.364 20.8763L56.6374 16.7129Z" fill="white"/>
<path d="M64.5445 18.209L65.874 19.0918L64.6793 20.8832L66.3857 22.0163L67.5806 20.2247L68.9101 21.1075L65.7176 25.894L64.388 25.0112L65.6012 23.1923L63.8946 22.0592L62.6815 23.8781L61.3521 22.9953L64.5445 18.209Z" fill="white"/>
<path d="M69.2405 70.5346L69.2506 70.5476C70.2764 71.843 70.0617 73.7184 68.6665 74.8182C67.2712 75.9179 65.4162 75.6949 64.3904 74.3995L64.3802 74.3866C63.3544 73.091 63.5692 71.2157 64.9643 70.116C66.3596 69.0164 68.2147 69.2392 69.2405 70.5346ZM65.6489 73.3657L65.659 73.3786C66.1745 74.0296 67.0951 74.2251 67.7863 73.6803C68.4709 73.1405 68.4908 72.2248 67.9753 71.5738L67.9651 71.5609C67.4498 70.9099 66.5291 70.7144 65.8444 71.2542C65.1532 71.799 65.1334 72.7147 65.6489 73.3657Z" fill="white"/>
<path d="M60.2258 79.6432L58.7822 80.1763L54.467 75.5956L56.0728 75.0025L56.8238 75.8201L58.9083 75.0503L58.937 73.9449L60.5119 73.3633L60.2258 79.6432ZM57.6876 76.8235L58.8584 78.1339L58.8997 76.3758L57.6876 76.8235Z" fill="white"/>
<path d="M51.9626 78.5509L52.1052 81.7756L50.4851 81.847L50.3438 78.6551C50.3072 77.8263 49.8704 77.451 49.2289 77.4793C48.5874 77.5076 48.1846 77.9035 48.2202 78.7076L48.3632 81.9405L46.7431 82.0118L46.6022 78.8282C46.5202 76.9738 47.5452 76.1147 49.1817 76.0426C50.8184 75.9705 51.883 76.7539 51.9626 78.5509Z" fill="white"/>
<path d="M40.7052 79.6049L42.3744 80.0545L42.0096 81.4026L37.1292 80.0882L37.4939 78.74L39.1631 79.1896L40.3002 74.9863L41.8422 75.4016L40.7052 79.6049Z" fill="white"/>
<path d="M32.8159 78.4332L31.4459 77.614L32.5547 75.768L30.7965 74.7166L29.6877 76.5625L28.3179 75.7434L31.2805 70.8115L32.6504 71.6308L31.5246 73.5049L33.2829 74.5564L34.4087 72.6823L35.7786 73.5016L32.8159 78.4332Z" fill="white"/>
</svg>
