<svg width="24" height="24" viewBox="0 0 24 24" fill="none" xmlns="http://www.w3.org/2000/svg">
<path d="M7.63542 10.0936C7.63542 10.3397 7.66203 10.5393 7.70859 10.6856C7.7618 10.832 7.82832 10.9916 7.92145 11.1646C7.95471 11.2178 7.96801 11.271 7.96801 11.3176C7.96801 11.3841 7.9281 11.4506 7.84163 11.5171L7.42256 11.7965C7.3627 11.8364 7.30283 11.8563 7.24962 11.8563C7.1831 11.8563 7.11658 11.8231 7.05006 11.7632C6.95694 11.6634 6.87712 11.557 6.8106 11.4506C6.74408 11.3375 6.67756 11.2111 6.60439 11.0581C6.08555 11.6701 5.43368 11.9761 4.64876 11.9761C4.09001 11.9761 3.64434 11.8164 3.3184 11.4972C2.99247 11.1779 2.82617 10.7522 2.82617 10.22C2.82617 9.6546 3.02573 9.19563 3.43149 8.84974C3.83724 8.50384 4.37604 8.3309 5.06117 8.3309C5.28734 8.3309 5.52015 8.35085 5.76626 8.38411C6.01238 8.41737 6.26515 8.47058 6.53122 8.53045V8.04487C6.53122 7.53933 6.42479 7.18679 6.21859 6.98058C6.00573 6.77438 5.64653 6.6746 5.13434 6.6746C4.90153 6.6746 4.66207 6.70121 4.41595 6.76107C4.16983 6.82094 3.93037 6.89411 3.69756 6.98723C3.59113 7.0338 3.51131 7.0604 3.46474 7.07371C3.41818 7.08701 3.38492 7.09366 3.35832 7.09366C3.26519 7.09366 3.21863 7.02714 3.21863 6.88746V6.56152C3.21863 6.45509 3.23193 6.37527 3.26519 6.32871C3.29845 6.28214 3.35832 6.23558 3.45144 6.18902C3.68425 6.06929 3.96363 5.96951 4.28957 5.88969C4.6155 5.80321 4.9614 5.7633 5.32725 5.7633C6.11881 5.7633 6.69752 5.9429 7.07002 6.3021C7.43587 6.6613 7.62212 7.20674 7.62212 7.93844V10.0936H7.63542ZM4.93479 11.1047C5.1543 11.1047 5.38046 11.0648 5.61993 10.985C5.85939 10.9051 6.07225 10.7588 6.25185 10.5592C6.35827 10.4329 6.4381 10.2932 6.47801 10.1335C6.51792 9.97389 6.54453 9.78099 6.54453 9.55483V9.27545C6.35162 9.22889 6.14542 9.18898 5.93256 9.16237C5.7197 9.13576 5.5135 9.12246 5.30729 9.12246C4.86162 9.12246 4.53568 9.20893 4.31617 9.38853C4.09666 9.56813 3.99024 9.8209 3.99024 10.1535C3.99024 10.4661 4.07006 10.6989 4.23635 10.8586C4.396 11.0249 4.62881 11.1047 4.93479 11.1047ZM10.2762 11.8231C10.1564 11.8231 10.0766 11.8031 10.0234 11.7566C9.9702 11.7167 9.92364 11.6235 9.88373 11.4972L8.32055 6.35531C8.28064 6.22228 8.26069 6.1358 8.26069 6.08924C8.26069 5.98281 8.3139 5.92295 8.42033 5.92295H9.07221C9.19859 5.92295 9.28507 5.9429 9.33163 5.98946C9.38484 6.02938 9.42475 6.1225 9.46466 6.24888L10.5822 10.6524L11.6198 6.24888C11.6531 6.11585 11.693 6.02938 11.7462 5.98946C11.7994 5.94955 11.8926 5.92295 12.0123 5.92295H12.5444C12.6708 5.92295 12.7573 5.9429 12.8105 5.98946C12.8637 6.02938 12.9103 6.1225 12.9369 6.24888L13.9879 10.7056L15.1386 6.24888C15.1786 6.11585 15.2251 6.02938 15.2717 5.98946C15.3249 5.94955 15.4114 5.92295 15.5311 5.92295H16.1497C16.2561 5.92295 16.316 5.97616 16.316 6.08924C16.316 6.1225 16.3094 6.15576 16.3027 6.19567C16.2961 6.23558 16.2828 6.2888 16.2561 6.36197L14.6531 11.5038C14.6132 11.6368 14.5666 11.7233 14.5134 11.7632C14.4602 11.8031 14.3737 11.8297 14.2606 11.8297H13.6886C13.5622 11.8297 13.4757 11.8098 13.4225 11.7632C13.3693 11.7167 13.3227 11.6302 13.2961 11.4972L12.2651 7.20674L11.2407 11.4905C11.2074 11.6235 11.1675 11.71 11.1143 11.7566C11.0611 11.8031 10.968 11.8231 10.8482 11.8231H10.2762ZM18.8237 12.0027C18.4778 12.0027 18.132 11.9628 17.7994 11.883C17.4668 11.8031 17.2074 11.7167 17.0344 11.6169C16.928 11.557 16.8548 11.4905 16.8282 11.4306C16.8016 11.3708 16.7883 11.3042 16.7883 11.2444V10.9051C16.7883 10.7655 16.8415 10.6989 16.9413 10.6989C16.9812 10.6989 17.0211 10.7056 17.061 10.7189C17.1009 10.7322 17.1608 10.7588 17.2273 10.7854C17.4535 10.8852 17.6996 10.965 17.959 11.0182C18.2251 11.0714 18.4845 11.098 18.7506 11.098C19.1696 11.098 19.4956 11.0249 19.7217 10.8785C19.9479 10.7322 20.0676 10.5193 20.0676 10.2466C20.0676 10.0604 20.0078 9.90737 19.888 9.78099C19.7683 9.6546 19.5421 9.54152 19.2162 9.4351L18.2517 9.13576C17.7661 8.98277 17.4069 8.75661 17.1874 8.45728C16.9679 8.1646 16.8548 7.83866 16.8548 7.49277C16.8548 7.2134 16.9147 6.96728 17.0344 6.75442C17.1541 6.54156 17.3138 6.35531 17.5133 6.20897C17.7129 6.05598 17.939 5.9429 18.2051 5.86308C18.4712 5.78326 18.7506 5.75 19.0432 5.75C19.1896 5.75 19.3426 5.75665 19.4889 5.77661C19.6419 5.79656 19.7816 5.82317 19.9213 5.84978C20.0543 5.88304 20.1807 5.91629 20.3004 5.95621C20.4202 5.99612 20.5133 6.03603 20.5798 6.07594C20.6729 6.12915 20.7395 6.18237 20.7794 6.24223C20.8193 6.29545 20.8392 6.36862 20.8392 6.46174V6.77438C20.8392 6.91406 20.786 6.98723 20.6862 6.98723C20.633 6.98723 20.5466 6.96063 20.4335 6.90741C20.0543 6.73447 19.6286 6.64799 19.1563 6.64799C18.7772 6.64799 18.4778 6.70786 18.2716 6.83424C18.0654 6.96063 17.959 7.15353 17.959 7.42625C17.959 7.6125 18.0255 7.77215 18.1586 7.89853C18.2916 8.02491 18.5377 8.1513 18.8903 8.26438L19.8348 8.56371C20.3137 8.7167 20.6596 8.92956 20.8658 9.20228C21.072 9.47501 21.1718 9.78764 21.1718 10.1335C21.1718 10.4196 21.112 10.679 20.9989 10.9051C20.8791 11.1313 20.7195 11.3309 20.5133 11.4905C20.3071 11.6568 20.061 11.7765 19.7749 11.863C19.4756 11.9561 19.163 12.0027 18.8237 12.0027Z" fill="white"/>
<path fill-rule="evenodd" clip-rule="evenodd" d="M20.0817 15.2355C17.8933 16.8519 14.7137 17.71 11.9798 17.71C8.14839 17.71 4.69611 16.2932 2.0886 13.9384C1.8824 13.7522 2.06865 13.4994 2.31476 13.6458C5.13513 15.2821 8.61402 16.2732 12.2126 16.2732C14.6405 16.2732 17.3079 15.7677 19.7624 14.73C20.1283 14.5637 20.4409 14.9695 20.0817 15.2355Z" fill="#FF9900"/>
<path fill-rule="evenodd" clip-rule="evenodd" d="M20.9934 14.1977C20.714 13.8385 19.1442 14.0247 18.4324 14.1112C18.2196 14.1378 18.1863 13.9516 18.3792 13.8119C19.6298 12.9338 21.6852 13.1866 21.9246 13.4793C22.1641 13.7786 21.8581 15.834 20.6874 16.8185C20.5078 16.9715 20.3348 16.8917 20.4147 16.6921C20.6807 16.0336 21.2727 14.5502 20.9934 14.1977Z" fill="#FF9900"/>
</svg>
