<svg width="40" height="40" viewBox="0 0 40 40" fill="none" xmlns="http://www.w3.org/2000/svg">
<rect width="40" height="40" rx="8" fill="#3A3B59"/>
<path fill-rule="evenodd" clip-rule="evenodd" d="M6 8.74751C6 8.05795 6 7.71317 6.13371 7.43565C6.25154 7.1911 6.44105 6.98381 6.67965 6.83851C6.95041 6.67363 7.31038 6.62469 8.03032 6.5268L18.2979 5.1308C19.2299 5.00408 19.6959 4.94073 20.058 5.0745C20.3759 5.19193 20.6412 5.40996 20.8089 5.69163C21 6.0125 21 6.45884 21 7.35151V26.6485C21 27.5412 21 27.9875 20.8089 28.3084C20.6412 28.59 20.3759 28.8081 20.058 28.9255C19.6959 29.0593 19.2299 28.9959 18.2979 28.8692H18.2979H18.2979L8.03032 27.4732L8.03028 27.4732C7.31037 27.3753 6.95041 27.3264 6.67965 27.1615C6.44105 27.0162 6.25154 26.8089 6.13371 26.5643C6 26.2868 6 25.942 6 25.2525V8.74751ZM17 15.2539C17 15.0439 17 14.9389 17.0353 14.856C17.0663 14.7829 17.1161 14.7218 17.1783 14.6806C17.249 14.6337 17.3424 14.6242 17.5291 14.6052L18.3655 14.5201C18.5856 14.4977 18.6956 14.4865 18.7806 14.5276C18.8552 14.5637 18.9169 14.6267 18.9558 14.7067C19 14.7977 19 14.9214 19 15.1688V18.8312C19 19.0786 19 19.2023 18.9558 19.2933C18.9169 19.3733 18.8552 19.4363 18.7806 19.4724C18.6956 19.5135 18.5856 19.5023 18.3655 19.4799L17.5291 19.3948C17.3424 19.3758 17.249 19.3663 17.1783 19.3194C17.1161 19.2782 17.0663 19.2171 17.0353 19.144C17 19.0611 17 18.9561 17 18.7461V15.2539ZM23.8222 7.5H22.5V27H23.8222C24.5845 27 24.9657 27 25.2568 26.8512C25.5129 26.7204 25.7212 26.5115 25.8516 26.2547C26 25.9627 26 25.5805 26 24.816V9.684C26 8.91953 26 8.53729 25.8516 8.2453C25.7212 7.98846 25.5129 7.77964 25.2568 7.64878C24.9657 7.5 24.5845 7.5 23.8222 7.5Z" fill="url(#paint0_linear_7487_106189)"/>
<path d="M19 25.4C19 24.0745 20.0745 23 21.4 23H32.6C33.9255 23 35 24.0745 35 25.4V32.6C35 33.9255 33.9255 35 32.6 35H21.4C20.0745 35 19 33.9255 19 32.6V25.4Z" fill="url(#paint1_linear_7487_106189)"/>
<path d="M27.4002 29.1687C27.1526 29.3116 26.8477 29.3116 26.6002 29.1687L21.272 26.0924C20.5631 25.6832 20.8535 24.5996 21.672 24.5996H32.3284C33.1468 24.5996 33.4372 25.6832 32.7284 26.0924L27.4002 29.1687Z" fill="#FFEAFE"/>
<defs>
<linearGradient id="paint0_linear_7487_106189" x1="-0.190476" y1="21.5976" x2="24.4448" y2="11.5268" gradientUnits="userSpaceOnUse">
<stop stop-color="#4B2EFB"/>
<stop offset="1" stop-color="#E65FFC"/>
</linearGradient>
<linearGradient id="paint1_linear_7487_106189" x1="33.4" y1="23" x2="22.016" y2="36.4394" gradientUnits="userSpaceOnUse">
<stop offset="0.165" stop-color="#EF84F1"/>
<stop offset="1" stop-color="#FACD97"/>
</linearGradient>
</defs>
</svg>
